<svg id="レイヤー_1" data-name="レイヤー 1" xmlns="http://www.w3.org/2000/svg" viewBox="0 0 355.54 65.88"><path d="M131.58,271.54a4.15,4.15,0,0,0-1.08-.69,96.32,96.32,0,0,1-14.21-12.35c-4.41-4.41-8.63-9-13.43-13.82l-1.28-1.27-1-.69c-.29,5.79.49,12.35.3,18.53a40.41,40.41,0,0,1-2,11.37c-.3.78-2,1.27-2.26.19a43.34,43.34,0,0,0,.79-7.15c.1-2.45,0-4.9,0-7.35,0-6.77-.39-16-.2-23.23L97.76,218l.49-2.65a4.19,4.19,0,0,1,1.57-2.16c.88,0,1.67.69,1.57,1.28-.49,8-.69,16-.88,24.11,3.43,2.94,6.56,6.17,9.6,9.31,3.14,3.33,6.08,6.56,9.51,9.7,5.68,5.29,11.56,10.19,18.13,13.72.78.3.49,1.37.2,1.67a4,4,0,0,1-2.75.39A14.13,14.13,0,0,1,131.58,271.54ZM110.9,243.41a1.38,1.38,0,0,1-1.57-1.08c2.06-1.27,4-2.35,5.78-3.62a27.4,27.4,0,0,0,5.19-4.42c3.83-4.31,6.47-9,7.06-14.6-.29-3.13-2-6.66-4.7-8.13-1.77-1-4-.79-5.88-.49a13.71,13.71,0,0,0-7.16,3.23,17.56,17.56,0,0,0-2.94,3.73l-1.08,1.17a.93.93,0,0,1-1.37-.78,13.32,13.32,0,0,1,3.33-6,15.3,15.3,0,0,1,7.75-4.51,13.81,13.81,0,0,1,8.91,1,10.34,10.34,0,0,1,4.41,4.12,14.15,14.15,0,0,1,1.77,9.31,24,24,0,0,1-3.63,9.11C123.05,237.24,117.27,241.84,110.9,243.41Z" transform="translate(-96.68 -207.6)"/><path d="M164.8,269.38a17,17,0,0,1-8.63,3.82,10.31,10.31,0,0,1-8.43-2.94,13.33,13.33,0,0,1-2.45-3.43,14.48,14.48,0,0,1-1.08-2.84,9.12,9.12,0,0,1-2.54,1.37,4.21,4.21,0,0,1-3.24-.29,1.72,1.72,0,0,1-.29-2.06,6.41,6.41,0,0,1,1.76-.59,10.93,10.93,0,0,0,1.47-.49c.69-.29,1.67-1,2.45-1.37a48.4,48.4,0,0,1,.69-13.52,20.53,20.53,0,0,1,4.6-9.51c2.16-1.76,6.28-2.94,8.92-2.06,3.43,1.18,6,4.8,7.35,7.94a5.89,5.89,0,0,1-1.56,5c-.89,1-2,2.06-3,3l-1.47,1.37a13.68,13.68,0,0,0-1.18,1.27,59.56,59.56,0,0,1-5.29,4.31c-1.86,1.38-3.73,2.65-5.39,3.73.49,2.74,1.37,5.49,3.92,7a7.81,7.81,0,0,0,7,.29,18.82,18.82,0,0,0,5.79-3.43c2.94-2.55,5.39-5.39,6.56-8.72.49-.49,1.38.49,1.38.88a14,14,0,0,1-2.26,5.78A24.54,24.54,0,0,1,164.8,269.38Zm-13.53-29.11a19.24,19.24,0,0,0-3.23,7.06,33.58,33.58,0,0,0-.89,10.88c1.87-1.28,3.83-2.65,5.79-4.12a43.06,43.06,0,0,0,5.78-5.09c1.27-1.28,3.14-2.65,3.43-4.61A12.66,12.66,0,0,0,158,239.1C156.07,238.41,152.84,238.8,151.27,240.27Z" transform="translate(-96.68 -207.6)"/><path d="M179.4,270.46a13,13,0,0,1-4.61-8,26.3,26.3,0,0,1,1.08-12.05,31.1,31.1,0,0,1,5.68-11,13.15,13.15,0,0,1,7.55-4.6c2.94-.2,5.88.39,7.55,2.94a6.58,6.58,0,0,1,.29,6.17,16.8,16.8,0,0,1-1.28,1.47,2.62,2.62,0,0,1-2,.78,3.12,3.12,0,0,1,.2-1.17l.49-.79a2.63,2.63,0,0,0,.49-1.37,4.53,4.53,0,0,0-1-3.72,4.85,4.85,0,0,0-4.8-1.28,12.78,12.78,0,0,0-5.59,4.22c-3.43,4.21-4.7,10.29-5.58,15.78a14.57,14.57,0,0,0,1.47,7.84,8.93,8.93,0,0,0,7.15,4.21,9.42,9.42,0,0,0,6.57-1.76,15.64,15.64,0,0,0,4.5-4.71,32.28,32.28,0,0,0,2.94-5.88.77.77,0,0,1,1.38.49,21.13,21.13,0,0,1-5.1,10.39C192.14,273.3,184.88,274.77,179.4,270.46Z" transform="translate(-96.68 -207.6)"/><path d="M213.4,273.2a10.12,10.12,0,0,1-7.15-6.07,23.58,23.58,0,0,1-.3-14.7,30,30,0,0,1,8-12.94c2.25-2.16,4.8-4.12,7.74-4.8a1.83,1.83,0,0,1,1.86.88A8.27,8.27,0,0,1,227,237a12.36,12.36,0,0,1,3.92,4.9,23.25,23.25,0,0,1,1.67,14.11,25.81,25.81,0,0,1-6.17,12.45C223,272.13,218.6,274.09,213.4,273.2Zm7.94-35.08a13.9,13.9,0,0,1-1.47,1l-1.37.88c-4.61,2.94-7.35,7.55-9,12.45a24.31,24.31,0,0,0-.49,12.74,6.76,6.76,0,0,0,5.1,4.6,9.64,9.64,0,0,0,8.62-2.25,19.39,19.39,0,0,0,6.37-11,26.31,26.31,0,0,0,.2-10.39c-.49-3-2.55-5.58-5.2-7.54A2.07,2.07,0,0,0,221.34,238.12Z" transform="translate(-96.68 -207.6)"/><path d="M286.61,270.75a6.22,6.22,0,0,1-.39-1.07c-1.77-9.71-1.47-20.19-3.63-29.7-.1-.49-.69-1.18-1.08-1.18a2.34,2.34,0,0,0-2,.89c-2.35,2.54-4.9,7.15-6.47,10.29-3.52,7-6.07,14.4-8.62,21.75a1.47,1.47,0,0,1-1.37,1,1.39,1.39,0,0,1-1.38-1.37c-1-9.7-2.15-18.72-5.29-27.54a4.83,4.83,0,0,0-1.86-2.55,3.57,3.57,0,0,0-2.65,0,11.37,11.37,0,0,0-3.43,5.1c-3.52,8.13-5.68,16.76-7.44,25.48a1.12,1.12,0,0,1-1.87.3c-2-3.73-2.25-8.33-2.15-12.84a66.88,66.88,0,0,1,4.31-22.15,5.14,5.14,0,0,1,1.86-2.75c.69,0,1.47.49,1.18,1.28-1,4.21-2.06,8.33-2.94,12.64a52.83,52.83,0,0,0-1.18,13.13,16.36,16.36,0,0,0,.1,2.26c1.18-4.51,2.16-9.12,3.63-13.53a45.46,45.46,0,0,1,5.19-10.48,6.57,6.57,0,0,1,6.76-1.47,9,9,0,0,1,3.63,4.11c1.17,2.55,2.84,9.7,3.43,12.84s.88,6.08,1.27,9.21c2.06-5.39,4.22-10.88,6.77-16,1.56-3,4.9-9.7,7.64-11.86a4.66,4.66,0,0,1,3.43-1.18c2.84.59,3.53,2.94,3.92,5.39a25.47,25.47,0,0,0,.59,2.94c1.27,9.12,1.37,18.63,2.35,27.74,0,.59-.88.88-1.27.69A2.82,2.82,0,0,1,286.61,270.75Z" transform="translate(-96.68 -207.6)"/><path d="M342.47,270.75a6.22,6.22,0,0,1-.39-1.07c-1.77-9.71-1.47-20.19-3.63-29.7-.1-.49-.69-1.18-1.08-1.18a2.34,2.34,0,0,0-2,.89c-2.35,2.54-4.9,7.15-6.47,10.29-3.52,7-6.07,14.4-8.62,21.75a1.48,1.48,0,0,1-1.37,1,1.39,1.39,0,0,1-1.38-1.37c-1-9.7-2.15-18.72-5.29-27.54a4.83,4.83,0,0,0-1.86-2.55,3.57,3.57,0,0,0-2.65,0,11.37,11.37,0,0,0-3.43,5.1c-3.52,8.13-5.68,16.76-7.44,25.48a1.12,1.12,0,0,1-1.87.3c-2.06-3.73-2.25-8.33-2.15-12.84a66.63,66.63,0,0,1,4.31-22.15,5.14,5.14,0,0,1,1.86-2.75c.69,0,1.47.49,1.18,1.28-1,4.21-2.06,8.33-2.94,12.64a52.36,52.36,0,0,0-1.18,13.13,16.36,16.36,0,0,0,.1,2.26c1.17-4.51,2.16-9.12,3.62-13.53a45.9,45.9,0,0,1,5.2-10.48,6.57,6.57,0,0,1,6.76-1.47,9,9,0,0,1,3.63,4.11c1.17,2.55,2.84,9.7,3.43,12.84s.88,6.08,1.27,9.21c2.06-5.39,4.22-10.88,6.77-16,1.56-3,4.9-9.7,7.64-11.86a4.66,4.66,0,0,1,3.43-1.18c2.84.59,3.53,2.94,3.92,5.39a25.47,25.47,0,0,0,.59,2.94c1.27,9.12,1.37,18.63,2.35,27.74,0,.59-.88.88-1.27.69A2.82,2.82,0,0,1,342.47,270.75Z" transform="translate(-96.68 -207.6)"/><path d="M373.53,269.38a17,17,0,0,1-8.62,3.82,10.3,10.3,0,0,1-8.43-2.94,13.09,13.09,0,0,1-2.45-3.43A13.87,13.87,0,0,1,353,264a9,9,0,0,1-2.55,1.37,4.18,4.18,0,0,1-3.23-.29,1.72,1.72,0,0,1-.3-2.06,6.47,6.47,0,0,1,1.77-.59,10.93,10.93,0,0,0,1.47-.49c.68-.29,1.66-1,2.45-1.37a48,48,0,0,1,.68-13.52,20.64,20.64,0,0,1,4.61-9.51c2.16-1.76,6.27-2.94,8.92-2.06,3.43,1.18,6,4.8,7.35,7.94a5.89,5.89,0,0,1-1.57,5c-.88,1-2,2.06-3,3L368,252.82a13.52,13.52,0,0,0-1.17,1.27,59.56,59.56,0,0,1-5.29,4.31c-1.87,1.38-3.73,2.65-5.4,3.73.49,2.74,1.38,5.49,3.92,7a7.84,7.84,0,0,0,7.06.29,18.65,18.65,0,0,0,5.78-3.43c2.94-2.55,5.39-5.39,6.57-8.72.49-.49,1.37.49,1.37.88a14,14,0,0,1-2.25,5.78A24.59,24.59,0,0,1,373.53,269.38ZM360,240.27a19.42,19.42,0,0,0-3.24,7.06,33.31,33.31,0,0,0-.88,10.88c1.86-1.28,3.82-2.65,5.78-4.12a42.56,42.56,0,0,0,5.79-5.09c1.27-1.28,3.13-2.65,3.43-4.61a12.82,12.82,0,0,0-4.12-5.29C364.81,238.41,361.58,238.8,360,240.27Z" transform="translate(-96.68 -207.6)"/><path d="M407.93,271.83A9,9,0,0,1,408,269a2.65,2.65,0,0,0-.1-.88,156.85,156.85,0,0,0-.49-26.27,7.84,7.84,0,0,0-.39-1.57,2.76,2.76,0,0,0-.79-1.27,2.37,2.37,0,0,0-3-.2c-1.28.79-2.36,2.45-3.34,3.63A50.88,50.88,0,0,0,392,257.72a73.51,73.51,0,0,0-3.23,13.82,1.48,1.48,0,0,1-2.74-.1c0-1.76-.1-5.19-.1-7.06-.2-6.46-1.08-15-1.37-20a25.68,25.68,0,0,0-1.47-8.13,1.54,1.54,0,0,1,1-1.77,3.37,3.37,0,0,1,2.45,2.26l.49,1c.88,6.86,1.27,13.81,2,20.67a85.06,85.06,0,0,1,5.19-11.85,42.2,42.2,0,0,1,7.64-10.2,5.31,5.31,0,0,1,3.53-1.17,6.05,6.05,0,0,1,3.53,1.57,19.14,19.14,0,0,1,2.35,7.05c.59,4.12.3,8.53.4,12.64.09,3.93-.1,7.94-.4,11.86a25.25,25.25,0,0,0,3.73-3.52l3.62-4.71c.49-.49,1.18.39,1.08.78a34.22,34.22,0,0,1-8.92,12.06C409.6,273.79,408.22,272.71,407.93,271.83Z" transform="translate(-96.68 -207.6)"/><path d="M446.74,257.82c-.59-3.53-.49-7.26-.89-11-2.54,7.55-5.58,14.9-10.19,21.56-1.76,2.55-4.41,4.9-7.54,4.61a7.11,7.11,0,0,1-5.3-3.53,26.27,26.27,0,0,1-1-12.84,38.87,38.87,0,0,1,5.79-14.9c2.05-3.33,5.39-6.56,9.5-6.27a8.84,8.84,0,0,1,6.18,3.14,8.24,8.24,0,0,1,1.47,3.23,21.18,21.18,0,0,0,1.17-6.17c.2-3,.2-6.18.59-9.22s.79-6.07,1.18-9a52.84,52.84,0,0,1,1.76-8.72c1.08-1.67,2.84,0,2.75,1-1.08,8.33-2.75,16.36-3,24.89-.3,9-.39,18.13,1.47,26.85a15,15,0,0,0,1.17,2.94,8.4,8.4,0,0,1,.4,1.18,2.08,2.08,0,0,1-2.55-.49A15.19,15.19,0,0,1,446.74,257.82Zm-5.69-16.57a4.93,4.93,0,0,0-3-2.35,4.4,4.4,0,0,0-3.82.49,25.23,25.23,0,0,0-4.51,5.29c-2.54,4.32-3.82,9.12-4.8,14.12,0,1.27-.1,2.64-.1,4a11.65,11.65,0,0,0,.59,3.82,4.41,4.41,0,0,0,2.26,2.84c1.86.59,3.43-.49,4.8-2.16,4.6-5.68,7.45-12.35,9.9-19.11a1.69,1.69,0,0,1-.79-1.37C441.54,245.08,441.84,242.92,441.05,241.25Z" transform="translate(-96.68 -207.6)"/></svg>